<?xml version="1.0" encoding="UTF-8" standalone="no"?>
<!DOCTYPE svg PUBLIC "-//W3C//DTD SVG 1.1//EN" "http://www.w3.org/Graphics/SVG/1.1/DTD/svg11.dtd">
<svg width="100%" height="100%" viewBox="0 0 175 175" version="1.1" xmlns="http://www.w3.org/2000/svg" xmlns:xlink="http://www.w3.org/1999/xlink" xml:space="preserve" xmlns:serif="http://www.serif.com/" style="fill-rule:evenodd;clip-rule:evenodd;stroke-linejoin:round;stroke-miterlimit:2;">
    <g transform="matrix(1,0,0,1,-333.662,-168.252)">
        <path d="M497.609,168.252C503.475,168.252 508.229,173.007 508.228,178.87L508.228,322.242C508.229,326.158 503.49,328.121 500.721,325.351L351.129,175.759C348.359,172.99 350.321,168.252 354.238,168.253L374.79,168.252C381.575,168.252 388.119,170.964 392.916,175.759L490.368,273.213C491.752,274.597 494.122,273.615 494.121,271.657L494.121,201.114C494.122,197.72 492.767,194.447 490.368,192.05L484.431,186.111C482.031,183.713 478.759,182.357 475.368,182.356L466.299,182.357C464.34,182.357 463.359,184.726 464.745,186.111L472.663,194.031C477.46,198.828 480.169,205.375 480.171,212.158L480.172,232.708C480.171,236.625 475.433,238.588 472.662,235.817L412.604,175.759C409.833,172.99 411.795,168.252 415.713,168.253L497.609,168.252Z" style="fill:rgb(223,35,137);fill-rule:nonzero;"/>
        <path d="M344.28,342.819C338.417,342.819 333.662,338.063 333.662,332.201L333.662,188.827C333.662,184.911 338.4,182.947 341.17,185.717L490.764,335.31C493.533,338.081 491.57,342.819 487.653,342.819L467.104,342.819C460.318,342.819 453.774,340.107 448.977,335.31L351.524,237.86C350.139,236.474 347.769,237.458 347.77,239.415L347.768,309.956C347.768,313.348 349.124,316.623 351.522,319.02L357.46,324.956C359.858,327.355 363.132,328.709 366.523,328.712L375.593,328.712C377.551,328.709 378.532,326.343 377.147,324.956L369.228,317.038C364.432,312.243 361.722,305.695 361.722,298.914L361.722,278.36C361.722,274.444 366.458,272.481 369.229,275.252L429.289,335.31C432.059,338.078 430.096,342.819 426.179,342.819L344.28,342.819Z" style="fill:rgb(38,126,199);fill-rule:nonzero;"/>
    </g>
</svg>
